<?xml version="1.0" encoding="UTF-8"?>
<svg version="1.1" xmlns="http://www.w3.org/2000/svg" width="3537" height="902">
<path d="M0 0 C24.75 0 49.5 0 75 0 C75 98.34 75 196.68 75 298 C78.3 298 81.6 298 85 298 C84.99777939 296.47379532 84.99555878 294.94759064 84.99327087 293.37513733 C84.97304316 279.02720599 84.95796969 264.67927967 84.94818783 250.33133793 C84.94302492 242.95404044 84.93598233 235.57675357 84.92456055 228.19946289 C84.91461354 221.7716782 84.90814653 215.3439012 84.90591151 208.91610903 C84.90460443 205.51060722 84.90151875 202.10512742 84.89426994 198.69963264 C84.88706394 194.90398959 84.88600887 191.10839288 84.88647461 187.31274414 C84.88287933 186.17554932 84.87928406 185.03835449 84.87557983 183.86669922 C84.8769545 182.83879776 84.87832916 181.8108963 84.87974548 180.75184631 C84.87882369 179.85309815 84.8779019 178.95434999 84.87695217 178.02836704 C85 176 85 176 86 175 C96.89 175 107.78 175 119 175 C119 228.13 119 281.26 119 336 C121.64 336 124.28 336 127 336 C127 253.83 127 171.66 127 87 C143.83 87 160.66 87 178 87 C178 156.63 178 226.26 178 298 C182.62 298 187.24 298 192 298 C192 213.19 192 128.38 192 41 C208.5 41 225 41 242 41 C242 125.81 242 210.62 242 298 C245.3 298 248.6 298 252 298 C252 225.4 252 152.8 252 78 C287.64 78 323.28 78 360 78 C360 155.22 360 232.44 360 312 C363.3 312 366.6 312 370 312 C370 267.78 370 223.56 370 178 C389.14 178 408.28 178 428 178 C429 179 429 179 429.12304783 181.40318394 C429.12212604 182.47891635 429.12120424 183.55464876 429.12025452 184.66297913 C429.12162918 185.89282028 429.12300385 187.12266144 429.12442017 188.38977051 C429.12088056 189.76513696 429.11724574 191.14050317 429.11352539 192.51586914 C429.11324352 193.95442198 429.11340124 195.39297496 429.1139679 196.83152771 C429.11425589 200.74871143 429.10835884 204.66586479 429.10139394 208.58304143 C429.09516074 212.67233837 429.09455663 216.76163593 429.09336853 220.85093689 C429.09025511 228.59992398 429.08204159 236.34889703 429.07201904 244.09787792 C429.06085822 252.91756209 429.05534753 261.73724691 429.05032361 270.55693638 C429.03985898 288.70463223 429.02225934 306.85231499 429 325 C430.65 325 432.3 325 434 325 C433.99777939 323.77446915 433.99555878 322.54893829 433.99327087 321.28627014 C433.97304137 309.76384087 433.95802879 298.24141518 433.94818783 286.71897221 C433.94295851 280.79449285 433.93585999 274.87002778 433.92456055 268.94555664 C433.91373339 263.23327429 433.90772353 257.52100572 433.90512276 251.80871391 C433.9032682 249.62411723 433.899647 247.43952135 433.89426994 245.2549305 C433.88706179 242.20647651 433.88600896 239.15808021 433.88647461 236.10961914 C433.88287933 235.19684204 433.87928406 234.28406494 433.87557983 233.34362793 C433.88594784 227.11405216 433.88594784 227.11405216 435 226 C438.10251201 225.91125865 441.1826812 225.88481545 444.28515625 225.90234375 C445.21597519 225.9037587 446.14679413 225.90517365 447.1058197 225.90663147 C450.09141191 225.91224828 453.07693029 225.9248036 456.0625 225.9375 C458.08137913 225.94251284 460.10025943 225.94707612 462.11914062 225.95117188 C467.07945572 225.96222317 472.03971532 225.97949905 477 226 C478.44957456 228.89914911 478.11932924 231.414283 478.11352539 234.65283203 C478.11367142 235.33587402 478.11381744 236.01891602 478.1139679 236.72265625 C478.11327023 238.9844071 478.10548465 241.246076 478.09765625 243.5078125 C478.09579155 245.07437088 478.09436789 246.64092984 478.09336853 248.20748901 C478.08954743 252.33389898 478.0797206 256.46027384 478.06866455 260.58666992 C478.0584417 264.79605637 478.05386903 269.00544847 478.04882812 273.21484375 C478.03809798 281.47657862 478.02102642 289.73828495 478 298 C478.99 298 479.98 298 481 298 C481 241.24 481 184.48 481 126 C507.07 126 533.14 126 560 126 C560 182.76 560 239.52 560 298 C561.65 298 563.3 298 565 298 C565 310.54 565 323.08 565 336 C576.88 336 588.76 336 601 336 C601 250.86 601 165.72 601 78 C632.35 78 663.7 78 696 78 C696 150.6 696 223.2 696 298 C704.58 298 713.16 298 722 298 C722 258.4 722 218.8 722 178 C741.14 178 760.28 178 780 178 C781 179 781 179 781.12304783 181.57497501 C781.12212604 182.73182521 781.12120424 183.8886754 781.12025452 185.08058167 C781.12110894 185.72255381 781.12196337 186.36452596 781.12284368 187.0259518 C781.12450021 189.19254054 781.11897433 191.35905307 781.11352539 193.52563477 C781.11324353 195.07256061 781.11340123 196.61948659 781.1139679 198.16641235 C781.11425592 202.37904032 781.10835849 206.59164006 781.10139394 210.80426145 C781.09516112 215.20185788 781.09455666 219.59945489 781.09336853 223.99705505 C781.090255 232.33040513 781.08204132 240.66374215 781.07201904 248.99708647 C781.06085857 258.48181254 781.05534762 267.96653922 781.05032361 277.45127022 C781.03985873 296.96752089 781.02225887 316.4837594 781 336 C784.63 336 788.26 336 792 336 C791.98839844 334.35128906 791.97679687 332.70257812 791.96484375 331.00390625 C791.95546762 328.85677196 791.94636723 326.70963645 791.9375 324.5625 C791.92912109 323.47388672 791.92074219 322.38527344 791.91210938 321.26367188 C791.90888672 320.22919922 791.90566406 319.19472656 791.90234375 318.12890625 C791.89710693 317.17056885 791.89187012 316.21223145 791.88647461 315.22485352 C792 313 792 313 793 312 C800.59 312 808.18 312 816 312 C816 280.32 816 248.64 816 216 C818.2876843 214.85615785 819.59919767 214.86191713 822.14257812 214.83886719 C822.99686401 214.82925964 823.8511499 214.8196521 824.73132324 214.80975342 C825.65529907 214.80550354 826.5792749 214.80125366 827.53125 214.796875 C828.47810669 214.79117493 829.42496338 214.78547485 830.4005127 214.77960205 C832.40452962 214.77014797 834.40856213 214.76361645 836.41259766 214.75976562 C839.48757763 214.75003929 842.56189516 214.7190114 845.63671875 214.6875 C847.58072518 214.68097219 849.52473641 214.67572085 851.46875 214.671875 C852.39272583 214.6595282 853.31670166 214.6471814 854.26867676 214.63446045 C855.55010559 214.6389621 855.55010559 214.6389621 856.85742188 214.64355469 C857.61083862 214.63990906 858.36425537 214.63626343 859.14050293 214.63250732 C859.75413696 214.75377991 860.367771 214.87505249 861 215 C863.64302929 218.96454393 863.26514283 222.37026819 863.22705078 226.96948242 C863.22734283 227.88675613 863.22763489 228.80402985 863.22793579 229.74909973 C863.22654111 232.7846519 863.21097333 235.8199594 863.1953125 238.85546875 C863.19158286 240.95868292 863.18873566 243.06189883 863.18673706 245.16511536 C863.17909673 250.70373319 863.15944475 256.24224632 863.1373291 261.78082275 C863.11687932 267.43134138 863.1077372 273.08187691 863.09765625 278.73242188 C863.07619928 289.82166062 863.04205847 300.9108216 863 312 C863.85464844 311.98839844 864.70929688 311.97679687 865.58984375 311.96484375 C867.24693359 311.95130859 867.24693359 311.95130859 868.9375 311.9375 C870.03964844 311.92589844 871.14179687 311.91429687 872.27734375 311.90234375 C875 312 875 312 876 313 C876.33 220.27 876.66 127.54 877 32 C910.66 32 944.32 32 979 32 C979 78.53 979 125.06 979 173 C991.87 173 1004.74 173 1018 173 C1018 214.25 1018 255.5 1018 298 C1022.95 298 1027.9 298 1033 298 C1032.99777939 296.13553726 1032.99555878 294.27107452 1032.99327087 292.35011292 C1032.97304449 274.82349396 1032.95797033 257.29687736 1032.94818783 239.77024937 C1032.94302458 230.75853063 1032.93598134 221.74682058 1032.92456055 212.73510742 C1032.91461459 204.8834045 1032.90814678 197.03170786 1032.90591151 189.17999882 C1032.90460425 185.01996548 1032.90151745 180.85995015 1032.89426994 176.69992256 C1032.88751111 172.78891588 1032.88538276 168.87793473 1032.88689232 164.96692276 C1032.88661593 163.52732772 1032.88460999 162.08773187 1032.88079453 160.64814186 C1032.87585949 158.69105767 1032.87760193 156.73395996 1032.87974548 154.77687073 C1032.87882369 153.67901528 1032.8779019 152.58115984 1032.87695217 151.45003605 C1033 149 1033 149 1034 148 C1057.43 148 1080.86 148 1105 148 C1105 197.5 1105 247 1105 298 C1111.27 298 1117.54 298 1124 298 C1124 256.42 1124 214.84 1124 172 C1138.19 172 1152.38 172 1167 172 C1167 217.87 1167 263.74 1167 311 C1174.92 311 1182.84 311 1191 311 C1190.99777939 307.50688736 1190.99555878 304.01377472 1190.99327087 300.41481018 C1190.97339177 268.41727874 1190.9584528 236.41974816 1190.94893467 204.42221192 C1190.94768389 200.2325651 1190.94638958 196.04291829 1190.94506836 191.85327148 C1190.94480605 191.01915227 1190.94454374 190.18503306 1190.94427348 189.32563751 C1190.93991654 175.80157075 1190.93202887 162.27750821 1190.9228472 148.75344396 C1190.91351132 134.88705724 1190.90794453 121.02067273 1190.90591151 107.15428299 C1190.90453614 98.59094627 1190.90018484 90.02762151 1190.89208353 81.46428847 C1190.88681687 75.60023418 1190.88519552 69.73618611 1190.88649862 63.87212963 C1190.88714213 60.48372668 1190.88612308 57.09534469 1190.88079453 53.70694542 C1190.87586483 50.04200433 1190.87699902 46.37711561 1190.87974548 42.71217346 C1190.87683264 41.62951173 1190.8739198 40.54685 1190.87091869 39.43138033 C1190.87290974 38.45752192 1190.87490079 37.4836635 1190.87695217 36.48029423 C1190.87657245 35.63313817 1190.87619273 34.78598211 1190.8758015 33.91315466 C1191 32 1191 32 1192 31 C1225.33 31 1258.66 31 1293 31 C1293 121.09 1293 211.18 1293 304 C1301.58 304 1310.16 304 1319 304 C1319 260.77 1319 217.54 1319 173 C1322.43604765 171.28197618 1326.38438896 171.8803382 1330.1640625 171.90234375 C1331.07127045 171.9037587 1331.97847839 171.90517365 1332.91317749 171.90663147 C1335.81715155 171.91223904 1338.72104915 171.92479282 1341.625 171.9375 C1343.59114472 171.94251402 1345.55729065 171.9470771 1347.5234375 171.95117188 C1352.34901166 171.96136101 1357.17442 171.98093493 1362 172 C1362 159.46 1362 146.92 1362 134 C1380.15 134 1398.3 134 1417 134 C1417 192.41 1417 250.82 1417 311 C1418.32 311 1419.64 311 1421 311 C1421 319.25 1421 327.5 1421 336 C1422.98 336 1424.96 336 1427 336 C1427 258.78 1427 181.56 1427 102 C1444.49 102 1461.98 102 1480 102 C1480 114.87 1480 127.74 1480 141 C1485.94 141 1491.88 141 1498 141 C1498 194.46 1498 247.92 1498 303 C1501.3 303 1504.6 303 1508 303 C1508 238.98 1508 174.96 1508 109 C1525.49 109 1542.98 109 1561 109 C1561 173.02 1561 237.04 1561 303 C1565.95 303 1570.9 303 1576 303 C1576 225.12 1576 147.24 1576 67 C1595.8 67 1615.6 67 1636 67 C1636 144.88 1636 222.76 1636 303 C1643.26 303 1650.52 303 1658 303 C1658 240.96 1658 178.92 1658 115 C1672.19 115 1686.38 115 1701 115 C1701 130.18 1701 145.36 1701 161 C1720.8 161 1740.6 161 1761 161 C1761 207.86 1761 254.72 1761 303 C1769.58 303 1778.16 303 1787 303 C1787 218.52 1787 134.04 1787 47 C1809.44 47 1831.88 47 1855 47 C1855 144.02 1855 241.04 1855 341 C1857.31 341 1859.62 341 1862 341 C1861.99476318 340.31373535 1861.98952637 339.6274707 1861.98413086 338.92041016 C1861.96339044 335.82194936 1861.95034924 332.72350314 1861.9375 329.625 C1861.92912109 328.54476563 1861.92074219 327.46453125 1861.91210938 326.3515625 C1861.90888672 325.3203125 1861.90566406 324.2890625 1861.90234375 323.2265625 C1861.89710693 322.27346191 1861.89187012 321.32036133 1861.88647461 320.33837891 C1862 318 1862 318 1863 316 C1863.10822148 313.07768746 1863.15491604 310.17856842 1863.15821838 307.25558472 C1863.16315636 306.33916014 1863.16809434 305.42273556 1863.17318195 304.47854054 C1863.18861401 301.38917867 1863.19693298 298.29983767 1863.20532227 295.21044922 C1863.21489631 293.00328384 1863.2249061 290.79612031 1863.23532104 288.58895874 C1863.26242754 282.58101612 1863.28340594 276.5730656 1863.30332303 270.56509542 C1863.32514723 264.29233442 1863.35255332 258.01959794 1863.37937927 251.74685669 C1863.4236701 241.21324735 1863.46449717 230.67962895 1863.50268555 220.14599609 C1863.54203367 209.29507465 1863.58345825 198.44416442 1863.62768555 187.59326172 C1863.63040982 186.92470016 1863.63313409 186.25613859 1863.63594092 185.56731759 C1863.64962028 182.21342676 1863.66334058 178.85953609 1863.67708123 175.50564551 C1863.7909754 147.67045212 1863.89705855 119.8352362 1864 92 C1889.08 92 1914.16 92 1940 92 C1940 161.63 1940 231.26 1940 303 C1948.58 303 1957.16 303 1966 303 C1965.99777939 299.28138199 1965.99555878 295.56276398 1965.99327087 291.73146057 C1965.97339197 257.66861867 1965.95845289 223.60577748 1965.94893467 189.54293105 C1965.94768389 185.08290129 1965.94638958 180.62287154 1965.94506836 176.1628418 C1965.94480605 175.27489152 1965.94454374 174.38694124 1965.94427348 173.47208338 C1965.93991649 159.07503568 1965.93202878 144.67799196 1965.9228472 130.28094662 C1965.91351147 115.51959005 1965.90794456 100.75823558 1965.90591151 85.99687618 C1965.90453611 76.8807694 1965.90018464 67.76467385 1965.89208353 58.64857053 C1965.88681706 52.40607022 1965.88519548 46.16357576 1965.88649862 39.92107338 C1965.88714216 36.31394215 1965.88612276 32.70683061 1965.88079453 29.09970284 C1965.87507335 25.19830214 1965.87699889 21.29692753 1965.87974548 17.39552307 C1965.87683264 16.24282427 1965.8739198 15.09012547 1965.87091869 13.9024964 C1965.87290974 12.86593686 1965.87490079 11.82937733 1965.87695217 10.7614069 C1965.87657245 9.85957111 1965.87619273 8.95773533 1965.8758015 8.02857119 C1966 6 1966 6 1967 5 C1991.75 5 2016.5 5 2042 5 C2042 103.34 2042 201.68 2042 303 C2045.3 303 2048.6 303 2052 303 C2051.99777939 301.47379532 2051.99555878 299.94759064 2051.99327087 298.37513733 C2051.97304316 284.02720599 2051.95796969 269.67927967 2051.94818783 255.33133793 C2051.94302492 247.95404044 2051.93598233 240.57675357 2051.92456055 233.19946289 C2051.91461354 226.7716782 2051.90814653 220.3439012 2051.90591151 213.91610903 C2051.90460443 210.51060722 2051.90151875 207.10512742 2051.89426994 203.69963264 C2051.88706394 199.90398959 2051.88600887 196.10839288 2051.88647461 192.31274414 C2051.88287933 191.17554932 2051.87928406 190.03835449 2051.87557983 188.86669922 C2051.87764183 187.32484703 2051.87764183 187.32484703 2051.87974548 185.75184631 C2051.87882369 184.85309815 2051.8779019 183.95434999 2051.87695217 183.02836704 C2052 181 2052 181 2053 180 C2063.89 180 2074.78 180 2086 180 C2086 233.13 2086 286.26 2086 341 C2088.64 341 2091.28 341 2094 341 C2094 258.83 2094 176.66 2094 92 C2110.83 92 2127.66 92 2145 92 C2145 161.63 2145 231.26 2145 303 C2149.62 303 2154.24 303 2159 303 C2159 218.19 2159 133.38 2159 46 C2175.5 46 2192 46 2209 46 C2209 130.81 2209 215.62 2209 303 C2212.3 303 2215.6 303 2219 303 C2219 230.4 2219 157.8 2219 83 C2254.64 83 2290.28 83 2327 83 C2327 160.22 2327 237.44 2327 317 C2330.3 317 2333.6 317 2337 317 C2337 272.78 2337 228.56 2337 183 C2356.14 183 2375.28 183 2395 183 C2396 184 2396 184 2396.12304783 186.40318394 C2396.12212604 187.47891635 2396.12120424 188.55464876 2396.12025452 189.66297913 C2396.12162918 190.89282028 2396.12300385 192.12266144 2396.12442017 193.38977051 C2396.12088056 194.76513696 2396.11724574 196.14050317 2396.11352539 197.51586914 C2396.11324352 198.95442198 2396.11340124 200.39297496 2396.1139679 201.83152771 C2396.11425589 205.74871143 2396.10835884 209.66586479 2396.10139394 213.58304143 C2396.09516074 217.67233837 2396.09455663 221.76163593 2396.09336853 225.85093689 C2396.09025511 233.59992398 2396.08204159 241.34889703 2396.07201904 249.09787792 C2396.06085822 257.91756209 2396.05534753 266.73724691 2396.05032361 275.55693638 C2396.03985898 293.70463223 2396.02225934 311.85231499 2396 330 C2397.65 330 2399.3 330 2401 330 C2400.99777939 328.77446915 2400.99555878 327.54893829 2400.99327087 326.28627014 C2400.97304137 314.76384087 2400.95802879 303.24141518 2400.94818783 291.71897221 C2400.94295851 285.79449285 2400.93585999 279.87002778 2400.92456055 273.94555664 C2400.91373339 268.23327429 2400.90772353 262.52100572 2400.90512276 256.80871391 C2400.9032682 254.62411723 2400.899647 252.43952135 2400.89426994 250.2549305 C2400.88706179 247.20647651 2400.88600896 244.15808021 2400.88647461 241.10961914 C2400.88287933 240.19684204 2400.87928406 239.28406494 2400.87557983 238.34362793 C2400.88594784 232.11405216 2400.88594784 232.11405216 2402 231 C2405.10251201 230.91125865 2408.1826812 230.88481545 2411.28515625 230.90234375 C2412.21597519 230.9037587 2413.14679413 230.90517365 2414.1058197 230.90663147 C2417.09141191 230.91224828 2420.07693029 230.9248036 2423.0625 230.9375 C2425.08137913 230.94251284 2427.10025943 230.94707612 2429.11914062 230.95117188 C2434.07945572 230.96222317 2439.03971532 230.97949905 2444 231 C2445.44957456 233.89914911 2445.11932924 236.414283 2445.11352539 239.65283203 C2445.11374443 240.67739502 2445.11374443 240.67739502 2445.1139679 241.72265625 C2445.11327023 243.9844071 2445.10548465 246.246076 2445.09765625 248.5078125 C2445.09579155 250.07437088 2445.09436789 251.64092984 2445.09336853 253.20748901 C2445.08954743 257.33389898 2445.0797206 261.46027384 2445.06866455 265.58666992 C2445.0584417 269.79605637 2445.05386903 274.00544847 2445.04882812 278.21484375 C2445.03809798 286.47657862 2445.02102642 294.73828495 2445 303 C2445.99 303 2446.98 303 2448 303 C2448 246.24 2448 189.48 2448 131 C2474.07 131 2500.14 131 2527 131 C2527 187.76 2527 244.52 2527 303 C2528.65 303 2530.3 303 2532 303 C2532 315.54 2532 328.08 2532 341 C2543.88 341 2555.76 341 2568 341 C2568 255.86 2568 170.72 2568 83 C2599.35 83 2630.7 83 2663 83 C2663 155.6 2663 228.2 2663 303 C2671.58 303 2680.16 303 2689 303 C2689 263.4 2689 223.8 2689 183 C2708.14 183 2727.28 183 2747 183 C2748 184 2748 184 2748.12304783 186.57497501 C2748.12212604 187.73182521 2748.12120424 188.8886754 2748.12025452 190.08058167 C2748.12110894 190.72255381 2748.12196337 191.36452596 2748.12284368 192.0259518 C2748.12450021 194.19254054 2748.11897433 196.35905307 2748.11352539 198.52563477 C2748.11324353 200.07256061 2748.11340123 201.61948659 2748.1139679 203.16641235 C2748.11425592 207.37904032 2748.10835849 211.59164006 2748.10139394 215.80426145 C2748.09516112 220.20185788 2748.09455666 224.59945489 2748.09336853 228.99705505 C2748.090255 237.33040513 2748.08204132 245.66374215 2748.07201904 253.99708647 C2748.06085857 263.48181254 2748.05534762 272.96653922 2748.05032361 282.45127022 C2748.03985873 301.96752089 2748.02225887 321.4837594 2748 341 C2751.63 341 2755.26 341 2759 341 C2758.98259766 338.52693359 2758.98259766 338.52693359 2758.96484375 336.00390625 C2758.95546762 333.85677196 2758.94636723 331.70963645 2758.9375 329.5625 C2758.92912109 328.47388672 2758.92074219 327.38527344 2758.91210938 326.26367188 C2758.90888672 325.22919922 2758.90566406 324.19472656 2758.90234375 323.12890625 C2758.89710693 322.17056885 2758.89187012 321.21223145 2758.88647461 320.22485352 C2759 318 2759 318 2760 317 C2767.59 317 2775.18 317 2783 317 C2783 285.32 2783 253.64 2783 221 C2785.2876843 219.85615785 2786.59919767 219.86191713 2789.14257812 219.83886719 C2789.99686401 219.82925964 2790.8511499 219.8196521 2791.73132324 219.80975342 C2792.65529907 219.80550354 2793.5792749 219.80125366 2794.53125 219.796875 C2795.47810669 219.79117493 2796.42496338 219.78547485 2797.4005127 219.77960205 C2799.40452962 219.77014797 2801.40856213 219.76361645 2803.41259766 219.75976562 C2806.48757763 219.75003929 2809.56189516 219.7190114 2812.63671875 219.6875 C2814.58072518 219.68097219 2816.52473641 219.67572085 2818.46875 219.671875 C2819.39272583 219.6595282 2820.31670166 219.6471814 2821.26867676 219.63446045 C2822.55010559 219.6389621 2822.55010559 219.6389621 2823.85742188 219.64355469 C2824.61083862 219.63990906 2825.36425537 219.63626343 2826.14050293 219.63250732 C2827.06095398 219.8144162 2827.06095398 219.8144162 2828 220 C2830.64302929 223.96454393 2830.26514283 227.37026819 2830.22705078 231.96948242 C2830.22734283 232.88675613 2830.22763489 233.80402985 2830.22793579 234.74909973 C2830.22654111 237.7846519 2830.21097333 240.8199594 2830.1953125 243.85546875 C2830.19158286 245.95868292 2830.18873566 248.06189883 2830.18673706 250.16511536 C2830.17909673 255.70373319 2830.15944475 261.24224632 2830.1373291 266.78082275 C2830.11687932 272.43134138 2830.1077372 278.08187691 2830.09765625 283.73242188 C2830.07619928 294.82166062 2830.04205847 305.9108216 2830 317 C2830.85464844 316.98839844 2831.70929687 316.97679687 2832.58984375 316.96484375 C2833.69457031 316.95582031 2834.79929687 316.94679688 2835.9375 316.9375 C2837.03964844 316.92589844 2838.14179688 316.91429687 2839.27734375 316.90234375 C2842 317 2842 317 2843 318 C2843.33 225.27 2843.66 132.54 2844 37 C2877.66 37 2911.32 37 2946 37 C2946 83.53 2946 130.06 2946 178 C2958.87 178 2971.74 178 2985 178 C2985 219.25 2985 260.5 2985 303 C2989.95 303 2994.9 303 3000 303 C2999.99777939 301.13553726 2999.99555878 299.27107452 2999.99327087 297.35011292 C2999.97304449 279.82349396 2999.95797033 262.29687736 2999.94818783 244.77024937 C2999.94302458 235.75853063 2999.93598134 226.74682058 2999.92456055 217.73510742 C2999.91461459 209.8834045 2999.90814678 202.03170786 2999.90591151 194.17999882 C2999.90460425 190.01996548 2999.90151745 185.85995015 2999.89426994 181.69992256 C2999.88751111 177.78891588 2999.88538276 173.87793473 2999.88689232 169.96692276 C2999.88661593 168.52732772 2999.88460999 167.08773187 2999.88079453 165.64814186 C2999.87585949 163.69105767 2999.87760193 161.73395996 2999.87974548 159.77687073 C2999.87882369 158.67901528 2999.8779019 157.58115984 2999.87695217 156.45003605 C3000 154 3000 154 3001 153 C3012.55 153 3024.1 153 3036 153 C3036 335.49 3036 517.98 3036 706 C1868.79 706 701.58 706 -501 706 C-501 517.9 -501 329.8 -501 136 C-490.44 136 -479.88 136 -469 136 C-469 189.46 -469 242.92 -469 298 C-465.7 298 -462.4 298 -459 298 C-459 233.98 -459 169.96 -459 104 C-441.51 104 -424.02 104 -406 104 C-406 168.02 -406 232.04 -406 298 C-401.05 298 -396.1 298 -391 298 C-391 220.12 -391 142.24 -391 62 C-371.2 62 -351.4 62 -331 62 C-331 139.88 -331 217.76 -331 298 C-323.74 298 -316.48 298 -309 298 C-309 235.96 -309 173.92 -309 110 C-294.81 110 -280.62 110 -266 110 C-266 125.18 -266 140.36 -266 156 C-246.2 156 -226.4 156 -206 156 C-206 202.86 -206 249.72 -206 298 C-197.42 298 -188.84 298 -180 298 C-180 213.52 -180 129.04 -180 42 C-157.56 42 -135.12 42 -112 42 C-112 139.02 -112 236.04 -112 336 C-109.69 336 -107.38 336 -105 336 C-105.00785522 334.97060303 -105.00785522 334.97060303 -105.01586914 333.92041016 C-105.03660956 330.82194936 -105.04965076 327.72350314 -105.0625 324.625 C-105.07087891 323.54476563 -105.07925781 322.46453125 -105.08789062 321.3515625 C-105.09272461 319.8046875 -105.09272461 319.8046875 -105.09765625 318.2265625 C-105.10551147 316.79691162 -105.10551147 316.79691162 -105.11352539 315.33837891 C-105 313 -105 313 -104 311 C-103.89177852 308.07768746 -103.84508396 305.17856842 -103.84178162 302.25558472 C-103.83437465 300.88094785 -103.83437465 300.88094785 -103.82681805 299.47854054 C-103.81138599 296.38917867 -103.80306702 293.29983767 -103.79467773 290.21044922 C-103.78510369 288.00328384 -103.7750939 285.79612031 -103.76467896 283.58895874 C-103.73757246 277.58101612 -103.71659406 271.5730656 -103.69667697 265.56509542 C-103.67485277 259.29233442 -103.64744668 253.01959794 -103.62062073 246.74685669 C-103.5763299 236.21324735 -103.53550283 225.67962895 -103.49731445 215.14599609 C-103.45796633 204.29507465 -103.41654175 193.44416442 -103.37231445 182.59326172 C-103.36822804 181.59041938 -103.36822804 181.59041938 -103.36405908 180.56731759 C-103.35037972 177.21342676 -103.33665942 173.85953609 -103.32291877 170.50564551 C-103.2090246 142.67045212 -103.10294145 114.8352362 -103 87 C-77.92 87 -52.84 87 -27 87 C-27 156.63 -27 226.26 -27 298 C-18.42 298 -9.84 298 -1 298 C-1.00222061 294.28138199 -1.00444122 290.56276398 -1.00672913 286.73146057 C-1.02660803 252.66861867 -1.04154711 218.60577748 -1.05106533 184.54293105 C-1.05231611 180.08290129 -1.05361042 175.62287154 -1.05493164 171.1628418 C-1.05532511 169.83091638 -1.05532511 169.83091638 -1.05572652 168.47208338 C-1.06008351 154.07503568 -1.06797122 139.67799196 -1.0771528 125.28094662 C-1.08648853 110.51959005 -1.09205544 95.75823558 -1.09408849 80.99687618 C-1.09546389 71.8807694 -1.09981536 62.76467385 -1.10791647 53.64857053 C-1.11318294 47.40607022 -1.11480452 41.16357576 -1.11350138 34.92107338 C-1.11285784 31.31394215 -1.11387724 27.70683061 -1.11920547 24.09970284 C-1.12492665 20.19830214 -1.12300111 16.29692753 -1.12025452 12.39552307 C-1.12462378 10.66647487 -1.12462378 10.66647487 -1.12908131 8.9024964 C-1.12709026 7.86593686 -1.12509921 6.82937733 -1.12304783 5.7614069 C-1.12342755 4.85957111 -1.12380727 3.95773533 -1.1241985 3.02857119 C-1 1 -1 1 0 0 Z " fill="#012" transform="translate(501,196)"/>
<path d="M0 0 C0.66 0 1.32 0 2 0 C2 0.66 2 1.32 2 2 C1.34 2 0.68 2 0 2 C0 1.34 0 0.68 0 0 Z " fill="#012" transform="translate(1996,330)"/>
</svg>
