<?xml version="1.0" encoding="UTF-8"?>
<svg version="1.1" xmlns="http://www.w3.org/2000/svg" width="2000" height="650">
<path d="M0 0 C39.27 0 78.54 0 119 0 C119 188.43 119 376.86 119 571 C133.85 571 148.7 571 164 571 C164 444.61 164 318.22 164 188 C189.08 188 214.16 188 240 188 C240 314.39 240 440.78 240 571 C243.63 571 247.26 571 251 571 C250.99777939 569.93955475 250.99555878 568.8791095 250.99327087 567.78652954 C250.97302942 557.80960791 250.958023 547.83269042 250.94818783 537.85575294 C250.94296156 532.72609224 250.93586854 527.59644806 250.92456055 522.46679688 C250.9137226 517.51960461 250.90772123 512.57242828 250.90512276 507.62522507 C250.90327015 505.73451868 250.89965267 503.84381319 250.89426994 501.95311356 C250.8870475 499.31198467 250.88600957 496.67092227 250.88647461 494.02978516 C250.88287933 493.24216293 250.87928406 492.45454071 250.87557983 491.64305115 C250.88594784 486.22810432 250.88594784 486.22810432 252 484 C258.27 484 264.54 484 271 484 C271 324.28 271 164.56 271 0 C297.07 0 323.14 0 350 0 C350 188.43 350 376.86 350 571 C358.58 571 367.16 571 376 571 C375.99777939 567.12073761 375.99555878 563.24147522 375.99327087 559.24465942 C375.97338924 523.70498312 375.95845155 488.16530751 375.94893467 452.62562687 C375.9476839 447.97160931 375.94638959 443.31759176 375.94506836 438.66357422 C375.94467489 437.27372528 375.94467489 437.27372528 375.94427348 435.85579859 C375.93991726 420.83540674 375.93202998 405.8150187 375.9228472 390.79462911 C375.91350933 375.39255068 375.9079441 359.99047424 375.90591151 344.58839309 C375.90453656 335.07767279 375.90018748 325.56696326 375.89208353 316.05624627 C375.88681443 309.54228546 375.88519608 303.02833026 375.88649862 296.51436748 C375.88714174 292.75116714 375.8861274 288.98798568 375.88079453 285.22478867 C375.87506612 281.15294921 375.87700088 277.0811504 375.87974548 273.00930786 C375.87537622 271.20875543 375.87537622 271.20875543 375.87091869 269.3718282 C375.87290974 268.28799347 375.87490079 267.20415875 375.87695217 266.08748055 C375.87657245 265.14653357 375.87619273 264.20558659 375.8758015 263.23612607 C376 261 376 261 377 259 C386.9 259 396.8 259 407 259 C407 361.96 407 464.92 407 571 C409.97 571 412.94 571 416 571 C416 424.81 416 278.62 416 128 C449.99 128 483.98 128 519 128 C519 274.19 519 420.38 519 571 C526.26 571 533.52 571 541 571 C541 382.57 541 194.14 541 0 C574.99 0 608.98 0 644 0 C644 188.43 644 376.86 644 571 C652.25 571 660.5 571 669 571 C668.99907821 569.23319161 668.99815641 567.46638323 668.99720669 565.64603519 C668.97557166 523.75154028 668.95907094 481.85704597 668.94893467 439.96254662 C668.94768389 434.81153823 668.94638958 429.66052986 668.94506836 424.50952148 C668.94480605 423.48400293 668.94454374 422.45848437 668.94427348 421.4018895 C668.93991638 404.77389045 668.93202861 388.14589485 668.9228472 371.51789785 C668.91351178 354.46939616 668.90794463 337.42089627 668.90591151 320.37239212 C668.90453605 309.84365059 668.90018422 299.31491879 668.89208353 288.78618025 C668.88681744 281.57654007 668.88519539 274.36690495 668.88649862 267.15726299 C668.88714222 262.99115924 668.88612208 258.82507254 668.88079453 254.65897179 C668.87596066 250.85135683 668.87566126 247.04377053 668.87910111 243.23615431 C668.87952681 241.85256501 668.87823096 240.46897399 668.87511682 239.08538813 C668.87115291 237.21686484 668.8738436 235.34833086 668.87695217 233.47980595 C668.87638259 231.91744665 668.87638259 231.91744665 668.8758015 230.32352453 C669 228 669 228 670 227 C684.85 227 699.7 227 715 227 C715 340.52 715 454.04 715 571 C727.21 571 739.42 571 752 571 C752 437.02 752 303.04 752 165 C771.14 165 790.28 165 810 165 C810 298.98 810 432.96 810 571 C819.24 571 828.48 571 838 571 C838 382.57 838 194.14 838 0 C869.35 0 900.7 0 933 0 C933 188.43 933 376.86 933 571 C946.86 571 960.72 571 975 571 C975 408.31 975 245.62 975 78 C1001.07 78 1027.14 78 1054 78 C1054 240.69 1054 403.38 1054 571 C1055.32 571 1056.64 571 1058 571 C1057.99962028 570.31268958 1057.99924056 569.62537916 1057.99884933 568.91724116 C1057.97649479 528.225438 1057.95932536 487.53363555 1057.94893467 446.84182749 C1057.94768389 441.96120204 1057.94638958 437.0805766 1057.94506836 432.19995117 C1057.94480605 431.22826368 1057.94454374 430.25657619 1057.94427348 429.25544363 C1057.93991642 413.50042555 1057.93202867 397.74541111 1057.9228472 381.9903952 C1057.91351167 365.83686333 1057.9079446 349.68333338 1057.90591151 333.52979892 C1057.90453607 323.55382754 1057.90018437 313.57786641 1057.89208353 303.60189819 C1057.88681731 296.77070405 1057.88519542 289.93951525 1057.88649862 283.10831923 C1057.8871422 279.16094389 1057.88612232 275.21358655 1057.88079453 271.26621437 C1057.87596036 267.65844458 1057.87566146 264.05070503 1057.87910111 260.44293391 C1057.87972972 258.50706866 1057.87538814 256.57120381 1057.87091869 254.63534361 C1057.87290974 253.501249 1057.87490079 252.36715439 1057.87695217 251.19869328 C1057.87657245 250.21180014 1057.87619273 249.224907 1057.8758015 248.20810801 C1058 246 1058 246 1059 245 C1073.19 245 1087.38 245 1102 245 C1102 352.58 1102 460.16 1102 571 C1103.98 571 1105.96 571 1108 571 C1108 437.02 1108 303.04 1108 165 C1127.14 165 1146.28 165 1166 165 C1166 298.98 1166 432.96 1166 571 C1169.63 571 1173.26 571 1177 571 C1177 382.57 1177 194.14 1177 0 C1212.97 0 1248.94 0 1286 0 C1286 188.43 1286 376.86 1286 571 C1299.53 571 1313.06 571 1327 571 C1327 420.19 1327 269.38 1327 114 C1345.81 114 1364.62 114 1384 114 C1384 264.81 1384 415.62 1384 571 C1387.63 571 1391.26 571 1395 571 C1395 437.02 1395 303.04 1395 165 C1414.14 165 1433.28 165 1453 165 C1453.33 185.46 1453.66 205.92 1454 227 C1468.85 227 1483.7 227 1499 227 C1499 340.52 1499 454.04 1499 571 C1508.57 571 1518.14 571 1528 571 C1528 382.57 1528 194.14 1528 0 C1563.97 0 1599.94 0 1637 0 C1637 188.43 1637 376.86 1637 571 C1645.58 571 1654.16 571 1663 571 C1662.99907821 569.22803788 1662.99815641 567.45607576 1662.99720669 565.63041782 C1662.97557167 523.6137346 1662.95907094 481.59705199 1662.94893467 439.58036435 C1662.94768389 434.41433469 1662.94638958 429.24830504 1662.94506836 424.08227539 C1662.94480605 423.05376622 1662.94454374 422.02525705 1662.94427348 420.96558093 C1662.93991637 404.28908295 1662.93202861 387.61258839 1662.9228472 370.93609244 C1662.91351178 353.8378702 1662.90794463 336.73964976 1662.90591151 319.64142507 C1662.90453604 309.08197409 1662.90018421 298.52253281 1662.89208353 287.96308481 C1662.88681745 280.73241985 1662.88519539 273.50175994 1662.88649862 266.2710932 C1662.88714222 262.09283787 1662.88612206 257.91459954 1662.88079453 253.7363472 C1662.87596068 249.91762973 1662.87566125 246.09894084 1662.87910111 242.28022211 C1662.87952681 240.89259516 1662.87823095 239.50496648 1662.87511682 238.11734296 C1662.87115293 236.24337384 1662.87384359 234.36939405 1662.87695217 232.49542332 C1662.87657245 231.45081269 1662.87619273 230.40620206 1662.8758015 229.32993656 C1663 227 1663 227 1664 226 C1678.85 226 1693.7 226 1709 226 C1709 339.85 1709 453.7 1709 571 C1715.93 571 1722.86 571 1730 571 C1730 444.61 1730 318.22 1730 188 C1755.08 188 1780.16 188 1806 188 C1806 314.39 1806 440.78 1806 571 C1811.61 571 1817.22 571 1823 571 C1822.99907821 569.23834535 1822.99815641 567.47669069 1822.99720669 565.66165257 C1822.97557165 523.88934595 1822.95907093 482.11703995 1822.94893467 440.34472889 C1822.94768389 435.20874178 1822.94638958 430.07275467 1822.94506836 424.93676758 C1822.94480605 423.91423964 1822.94454374 422.8917117 1822.94427348 421.83819806 C1822.93991638 405.25869796 1822.93202861 388.67920131 1822.9228472 372.09970326 C1822.91351177 355.10092211 1822.90794463 338.10214277 1822.90591151 321.10335916 C1822.90453605 310.60532709 1822.90018423 300.10730477 1822.89208353 289.60927569 C1822.88681744 282.42066029 1822.88519539 275.23204997 1822.88649862 268.04343278 C1822.88714222 263.88948061 1822.88612209 259.73554554 1822.88079453 255.58159637 C1822.87596065 251.78508393 1822.87566127 247.98860022 1822.87910111 244.19208651 C1822.87952681 242.81253487 1822.87823098 241.4329815 1822.87511682 240.05343331 C1822.87115288 238.19035585 1822.87384361 236.32726766 1822.87695217 234.46418858 C1822.87657245 233.42565347 1822.87619273 232.38711837 1822.8758015 231.31711251 C1823 229 1823 229 1824 228 C1837.53 228 1851.06 228 1865 228 C1865 153.09 1865 78.18 1865 1 C1900.97 1 1936.94 1 1974 1 C1974 189.1 1974 377.2 1974 571 C1982.58 571 1991.16 571 2000 571 C2000 597.07 2000 623.14 2000 650 C1340 650 680 650 0 650 C0 435.5 0 221 0 0 Z " fill="#123" transform="translate(0,0)"/>
</svg>
