<?xml version="1.0" encoding="UTF-8"?>
<svg version="1.1" xmlns="http://www.w3.org/2000/svg" width="2000" height="650">
<path d="M0 0 C2.23990564 4.22695761 3.85679411 8.34776927 5.234375 12.92578125 C5.43548889 13.59046921 5.63660278 14.25515717 5.84381104 14.93998718 C6.26986127 16.35204145 6.69329456 17.76488766 7.11425781 19.1784668 C7.72915908 21.24254206 8.35201006 23.30406189 8.9765625 25.36523438 C11.1248362 32.4932972 13.18486198 39.6408478 15.15895081 46.8190918 C20.68475175 66.86200831 26.80977617 86.72812749 32.84503555 106.62198257 C34.49028135 112.04769657 36.13221262 117.47441313 37.77416992 122.90112305 C38.10141461 123.98263799 38.42865931 125.06415293 38.7658205 126.17844105 C39.42338019 128.35163073 40.08093009 130.52482338 40.73847008 132.69801903 C41.71472011 135.92418264 42.69127712 139.15025319 43.66792297 142.376297 C48.4023085 158.01586623 53.12120508 173.6599421 57.8125 189.3125 C58.14568237 190.4239035 58.47886475 191.53530701 58.82214355 192.6803894 C63.90527365 209.63993409 68.97498793 226.60349682 74.046875 243.56640625 C74.36519539 244.63102711 74.68351578 245.69564796 75.01148224 246.79253006 C75.99952175 250.09703679 76.98755469 253.40154548 77.97558594 256.70605469 C78.30940907 257.82253325 78.64323219 258.9390118 78.98717117 260.08932304 C80.69647416 265.8061503 82.40572115 271.52299428 84.11486816 277.23986816 C96.24380643 317.80876665 108.40163343 358.36895821 120.57250977 398.92529297 C120.89504164 400.00008911 121.21757351 401.07488525 121.54987907 402.18225098 C123.14898954 407.51084812 124.74852317 412.83931762 126.34887695 418.1675415 C129.18184448 427.60083463 132.0121909 437.03487066 134.82853699 446.47314167 C136.39446363 451.72086743 137.96242251 456.96798455 139.53125 462.21484375 C139.83953861 463.24621523 140.14782722 464.27758671 140.46545792 465.34021187 C144.45341667 478.66893075 148.5311167 491.96600441 152.70372009 505.23805237 C154.88750109 512.18690337 157.03909561 519.14559425 159.18237209 526.10703373 C160.71753752 531.08628575 162.27074726 536.05857688 163.86108398 541.02050781 C165.45797021 546.00637239 167.00522882 551.00549741 168.52298164 556.01599121 C169.08942156 557.85761788 169.67159096 559.69451671 170.27299309 561.52502441 C176.33866652 580.04929521 175 594.25731135 175 615 C-113.09 615 -401.18 615 -698 615 C-697.40066964 605.41071432 -696.77701711 596.04142141 -695.56065369 586.54769897 C-695.41750156 585.39831598 -695.27434944 584.24893299 -695.12685937 583.06472021 C-694.65168069 579.25917693 -694.16948803 575.45455772 -693.68725586 571.64990234 C-693.34040086 568.88846612 -692.99504553 566.12684281 -692.64961815 563.3652277 C-691.90385224 557.40938248 -691.1544511 551.45400384 -690.40255165 545.49892998 C-689.29696914 536.74262188 -688.19702176 527.98561252 -687.09824114 519.22844862 C-685.1661309 503.8311752 -683.22849966 488.43460062 -681.28847217 473.03832298 C-679.61123361 459.72732258 -677.93613671 446.41605471 -676.26312256 433.10452271 C-676.15272825 432.22617475 -676.04233394 431.34782679 -675.92859435 430.44286224 C-675.48229179 426.89183762 -675.03600044 423.34081159 -674.58972484 419.78978358 C-669.66223321 380.58184617 -664.72541163 341.3750868 -659.78518867 302.16875178 C-658.46701228 291.70738447 -657.14928114 281.24596118 -655.83197021 270.78448486 C-655.7464726 270.10550674 -655.66097498 269.42652862 -655.57288652 268.72697541 C-655.15180172 265.38293177 -654.73071981 262.03888777 -654.3096379 258.69484377 C-650.87808259 231.44365762 -647.44313723 204.19290048 -644.00421381 176.94264317 C-643.62356948 173.92616362 -643.2430075 170.90967371 -642.86246872 167.89318085 C-641.44674994 156.67135391 -640.0297412 145.44969138 -638.61045265 134.22831535 C-638.19425035 130.93745049 -637.77855661 127.64652207 -637.36334801 124.35553169 C-636.89477288 120.64181357 -636.4250771 116.92823903 -635.95443738 113.214782 C-635.70684129 111.25903655 -635.46039292 109.30314591 -635.2139883 107.34724998 C-635.06712613 106.19048571 -634.92026396 105.03372143 -634.76895142 103.84190369 C-634.64354288 102.85024169 -634.51813435 101.85857969 -634.38892555 100.83686733 C-633.98355251 97.88003014 -633.50451617 94.94140486 -633 92 C-632.34 92 -631.68 92 -631 92 C-631 91.34 -631 90.68 -631 90 C-626.25 90.75 -626.25 90.75 -624 93 C-623.41046629 94.81240233 -622.90873933 96.65372274 -622.45144653 98.50392151 C-622.01114089 100.2632218 -622.01114089 100.2632218 -621.56194019 102.05806351 C-621.24184829 103.36753496 -620.92188981 104.67703903 -620.60205078 105.98657227 C-620.26000692 107.36469206 -619.91734051 108.74265746 -619.57409954 110.12047958 C-618.63658112 113.89146918 -617.70788928 117.66458488 -616.78065515 121.4381144 C-615.79623714 125.43787991 -614.80375541 129.43564373 -613.81217957 133.43363953 C-611.90223744 141.13980407 -609.99967669 148.84777221 -608.09958774 156.55637139 C-605.90543298 165.45649568 -603.70327498 174.35463347 -601.50057948 183.25264716 C-596.85451561 202.02193423 -592.21961445 220.79396671 -587.58765954 239.56673968 C-585.26721864 248.97061459 -582.94275876 258.37349573 -580.61807823 267.77632332 C-577.56293821 280.13443697 -574.5120016 292.49358223 -571.46441078 304.85355949 C-565.38418393 329.51199527 -559.28533554 354.16582505 -553.18270874 378.81872559 C-551.94304754 383.82680009 -550.70399235 388.83502391 -549.46548462 393.84338379 C-548.01614946 399.70422403 -546.56565764 405.56477678 -545.11425781 411.42510605 C-544.57497021 413.60342099 -544.03609624 415.78183838 -543.49765015 417.96036148 C-542.75777695 420.95350893 -542.01641107 423.94628274 -541.2746582 426.93896484 C-541.05715062 427.82037266 -540.83964304 428.70178047 -540.61554432 429.60989761 C-540.41594451 430.41388866 -540.2163447 431.21787971 -540.01069641 432.04623413 C-539.75238273 433.08998483 -539.75238273 433.08998483 -539.48885059 434.1548214 C-539.05614886 435.78806475 -538.5342953 437.39711411 -538 439 C-533.71187028 426.02592122 -529.42472622 413.05151714 -525.13869476 400.07674503 C-523.1464564 394.04588922 -521.15393229 388.0151282 -519.16064453 381.98461914 C-508.94259044 351.0699466 -498.77823362 320.1384506 -488.68920898 289.181427 C-486.37003496 282.0661557 -484.04483602 274.95285782 -481.71875 267.83984375 C-481.3530188 266.72122452 -480.9872876 265.60260529 -480.61047363 264.4500885 C-479.57373748 261.27919676 -478.53687355 258.10834682 -477.5 254.9375 C-476.7538975 252.65560182 -476.0078038 250.37370076 -475.26171875 248.09179688 C-473.50791181 242.72783211 -471.75400483 237.36390006 -470 232 C-469.34 232 -468.68 232 -468 232 C-468 231.34 -468 230.68 -468 230 C-463.25 230.75 -463.25 230.75 -461 233 C-460.39459205 234.93144181 -459.87996245 236.89164403 -459.40966797 238.86035156 C-459.10598801 240.11645233 -458.80230804 241.3725531 -458.48942566 242.66671753 C-458.15685286 244.07464888 -457.82444627 245.4826195 -457.4921875 246.890625 C-457.1353284 248.37986885 -456.77787487 249.86897037 -456.4198761 251.35794067 C-455.4364871 255.45676933 -454.46245721 259.55777338 -453.49010849 263.65923309 C-452.66677241 267.12703088 -451.83805886 270.59353407 -451.00934124 274.06004906 C-442.61107632 309.19481045 -434.35133 344.36292415 -426.09912109 379.53222656 C-425.12208607 383.69596724 -424.14504328 387.85970609 -423.16796875 392.0234375 C-422.93549438 393.01419785 -422.70302002 394.00495819 -422.46350098 395.02574158 C-419.02073831 409.69482159 -415.54750119 424.35583969 -412 439 C-410.50860257 436.23230311 -409.56987923 433.69171556 -408.88682556 430.62658691 C-408.68991151 429.75503464 -408.49299746 428.88348236 -408.29011631 427.98551941 C-408.08085986 427.03445816 -407.87160341 426.08339691 -407.65600586 425.10351562 C-407.42910789 424.0921907 -407.20220991 423.08086578 -406.96843624 422.03889465 C-406.21222914 418.66244457 -405.46353914 415.28437301 -404.71484375 411.90625 C-404.18112874 409.51588969 -403.64694986 407.1256329 -403.11233521 404.73547363 C-401.97374709 399.64055931 -400.8383144 394.54495271 -399.70559692 389.44873047 C-398.08770823 382.17018386 -396.46226169 374.89334049 -394.83494127 367.61689758 C-389.59734049 344.19532259 -384.38208491 320.76888023 -379.2188015 297.33079529 C-378.04343154 291.99979474 -376.86345253 286.6698122 -375.68323994 281.3398819 C-374.6115117 276.49624646 -373.54922699 271.65066393 -372.4941864 266.80336761 C-371.85132942 263.85907175 -371.20041202 260.91660288 -370.54717636 257.97459412 C-370.11380081 256.01066246 -369.69062725 254.04448807 -369.26785278 252.07824707 C-369.01067474 250.92707397 -368.7534967 249.77590088 -368.48852539 248.58984375 C-368.16314537 247.10278931 -368.16314537 247.10278931 -367.83119202 245.58569336 C-366.95976722 242.87484284 -365.83637398 241.15440901 -364 239 C-361.6875 239.0625 -361.6875 239.0625 -359 240 C-356.28957254 245.29607423 -354.91961411 250.76110211 -353.57421875 256.53100586 C-353.35035051 257.46816783 -353.12648228 258.4053298 -352.89583015 259.37089062 C-352.15372849 262.48415108 -351.42061996 265.5994571 -350.6875 268.71484375 C-350.16069627 270.93281915 -349.63332978 273.15066095 -349.10543823 275.36837769 C-347.68947666 281.32375739 -346.2812002 287.28093013 -344.8743515 293.23846817 C-343.4170352 299.40379114 -341.95259446 305.56742093 -340.48876953 311.73120117 C-338.12329104 321.69526117 -335.76174966 331.66024582 -333.40332031 341.62597656 C-330.29487464 354.7603128 -327.17696454 367.89238316 -324.0546875 381.0234375 C-323.1640333 384.76960569 -322.27341791 388.5157831 -321.3828125 392.26196289 C-321.06653963 393.59225509 -321.06653963 393.59225509 -320.74387741 394.94942188 C-318.57416427 404.0763691 -316.40773534 413.20409495 -314.2421875 422.33203125 C-314.07228176 423.04819485 -313.90237602 423.76435844 -313.72732162 424.50222397 C-312.81809665 428.33478805 -311.90898784 432.16737967 -311 436 C-309.19699712 433.29549568 -308.26135616 431.22012593 -307.20678711 428.1887207 C-306.86071411 427.20077515 -306.51464111 426.21282959 -306.15808105 425.19494629 C-305.59836609 423.57670959 -305.59836609 423.57670959 -305.02734375 421.92578125 C-304.63268921 420.79595825 -304.23803467 419.66613525 -303.8314209 418.5020752 C-302.75462655 415.41765551 -301.68145289 412.33200346 -300.60963058 409.24585342 C-299.479478 405.99502029 -298.34435062 402.74592675 -297.20922852 399.49682617 C-296.9814997 398.84494733 -296.75377089 398.19306849 -296.5191412 397.52143574 C-296.05721605 396.19918267 -295.59527494 394.87693517 -295.13331795 393.55469322 C-294.43430376 391.55334885 -293.73582365 389.55181876 -293.03746033 387.55024719 C-288.87535879 375.62418957 -284.6637719 363.71595021 -280.4375 351.8125 C-274.43125151 334.88447634 -268.45668052 317.94552701 -262.5 301 C-256.57973732 284.16054277 -250.6484372 267.3251059 -244.6875 250.5 C-244.17796783 249.06179901 -244.17796783 249.06179901 -243.65814209 247.59454346 C-239.57720423 236.07769942 -235.49020049 224.5630116 -231.40096283 213.04911232 C-229.54416931 207.8208865 -227.68770514 202.59254373 -225.83130646 197.3641777 C-225.36046115 196.0381315 -224.88959018 194.71209441 -224.41869354 193.38606644 C-217.28921204 173.30969509 -210.20301744 153.21855893 -203.146698 133.11633301 C-196.45264804 114.05353432 -189.65274664 95.0299208 -182.81005859 76.02001953 C-179.07981936 65.64843397 -175.37836159 55.2686412 -171.765625 44.85546875 C-171.43617386 43.90700073 -171.10672272 42.95853271 -170.76728821 41.98132324 C-169.2317838 37.55698605 -167.70338767 33.13038553 -166.1862793 28.69970703 C-165.65428927 27.16042814 -165.12215349 25.62119961 -164.58984375 24.08203125 C-164.354328 23.38587204 -164.11881226 22.68971283 -163.87615967 21.97245789 C-162.87618873 19.09546639 -162.18348586 17.18348586 -160 15 C-157.5 14.75 -157.5 14.75 -155 15 C-152.11012486 17.88987514 -152.16718712 21.1813614 -151.62971497 25.07974243 C-151.44467495 26.3484506 -151.44467495 26.3484506 -151.25589675 27.64278924 C-150.84205119 30.49465535 -150.44026183 33.3480924 -150.03833008 36.20166016 C-149.74469915 38.24237788 -149.45032907 40.28298937 -149.15527344 42.32350159 C-148.35199527 47.8935547 -147.55910588 53.4650442 -146.76793122 59.03682756 C-145.93246464 64.90761493 -145.08739553 70.77701957 -144.24333191 76.64657593 C-142.63718138 87.82586446 -141.03949976 99.0063462 -139.44489449 110.18728673 C-137.48261537 123.94356775 -135.51002804 137.69836659 -133.53710938 151.453125 C-131.51114333 165.57929407 -129.48592517 179.70556514 -127.46821594 193.83291626 C-124.51935706 214.47704331 -121.56245375 235.12002138 -118.56737268 255.75750041 C-118.25867058 257.8862321 -117.95064478 260.01506199 -117.64333117 262.14399457 C-117.22054064 265.07133848 -116.79511542 267.99828728 -116.36894226 270.92514038 C-116.24448915 271.79027811 -116.12003605 272.65541584 -115.99181163 273.54676986 C-115.87530415 274.34289317 -115.75879667 275.13901649 -115.63875866 275.95926476 C-115.53892844 276.64731489 -115.43909823 277.33536502 -115.33624285 278.04426515 C-114.98935699 280.0619044 -114.52108322 282.02083601 -114 284 C-113.63463135 283.02393799 -113.2692627 282.04787598 -112.89282227 281.04223633 C-103.71415102 256.52622155 -94.4892034 232.02799982 -85.22950745 207.54248047 C-82.75474749 200.99798406 -80.28283464 194.45241798 -77.8125 187.90625 C-70.20385787 167.746559 -62.56879393 147.59720515 -54.9050293 127.45840454 C-49.73792031 113.87672366 -44.59454802 100.28628457 -39.47265625 86.6875 C-39.19024393 85.93772385 -38.90783161 85.18794769 -38.61686134 84.41545105 C-36.07849296 77.67587257 -33.54079298 70.9360429 -31.00613403 64.19506836 C-28.14915859 56.59688804 -25.28857695 49.00010368 -22.41840076 41.4068985 C-21.0135502 37.68909755 -19.61264897 33.96986226 -18.21716309 30.24853516 C-16.71928641 26.2543017 -15.2145705 22.262705 -13.70533371 18.27275085 C-13.12896264 16.74530063 -12.55506259 15.21691554 -11.98372269 13.68757629 C-11.19406227 11.57500031 -10.39573436 9.46590233 -9.59521484 7.35742188 C-9.14141449 6.15146362 -8.68761414 4.94550537 -8.22006226 3.70300293 C-6.30306437 -0.54403519 -4.3233783 -0.11377311 0 0 Z " fill="#123" transform="translate(1825,35)"/>
<path d="M0 0 C1.8125 0.5 1.8125 0.5 4 2 C7.09911999 9.1253735 8.8868724 16.6666211 10.859375 24.1640625 C11.23927542 25.59553796 11.61956097 27.02691125 12.00019836 28.45819092 C12.8208882 31.54710349 13.63908642 34.63666118 14.45535278 37.72674561 C15.77777469 42.73252948 17.10602027 47.73675684 18.43530273 52.74072266 C19.84656148 58.05400342 21.25762495 63.36733491 22.66697693 68.68112183 C27.30360366 86.16112074 31.97446504 103.63189808 36.65087891 121.10128784 C38.81876303 129.19983485 40.98498174 137.29882742 43.15140915 145.39776421 C43.89774596 148.1877988 44.64413364 150.97781978 45.39053345 153.76783752 C51.06276581 174.97080617 56.73091778 196.17486554 62.39899826 217.3789444 C63.53696807 221.63603343 64.67495965 225.89311664 65.81295109 230.15019989 C68.10794936 238.73550106 70.40292662 247.32080784 72.69788265 255.9061203 C76.1061988 268.65644779 79.51462308 281.40674637 82.92312431 294.15702438 C83.7660592 297.31021797 84.60898971 300.46341273 85.45191956 303.61660767 C87.97096188 313.03970829 90.49003843 322.46279977 93.00925159 331.88585472 C94.40592811 337.11009551 95.80257976 342.33434294 97.19921875 347.55859375 C97.47609968 348.59428875 97.75298061 349.62998375 98.03825188 350.69706345 C102.12741059 365.99308167 106.21513567 381.28948257 110.30216789 396.58606911 C112.97199253 406.57828918 115.64213738 416.57042368 118.3125 426.5625 C118.59808903 427.63113155 118.88367805 428.69976311 119.1779213 429.80077744 C127.75038649 461.87661332 136.33969738 493.9477486 145 526 C148.27282408 514.02137665 151.54329496 502.04211153 154.8125 490.0625 C155.20287256 488.6320636 155.20287256 488.6320636 155.60113144 487.17272949 C162.80734504 460.7654204 169.99450627 434.35299934 177.15625 407.93359375 C177.33051726 407.29074605 177.50478452 406.64789836 177.68433261 405.98557043 C179.29622287 400.03952193 180.90800095 394.09344303 182.51972103 388.1473484 C195.32441663 340.90743369 208.16090413 293.67638212 221.06824559 246.46439826 C222.17166331 242.4283309 223.27478051 238.3921816 224.37757725 234.35594451 C228.90363487 217.79070271 233.44105516 201.22861976 237.99191284 184.67017365 C238.85856019 181.51494424 239.72416607 178.35943155 240.58920217 175.20376009 C242.51692047 168.17142916 244.45050987 161.14074413 246.39002228 154.11165428 C247.0518206 151.70998934 247.71177841 149.30781639 248.36980438 146.90511513 C249.27300744 143.60873199 250.18297242 140.31429019 251.09472656 137.02026367 C251.36086006 136.04309324 251.62699356 135.06592281 251.90119171 134.05914116 C252.14957542 133.16722635 252.39795914 132.27531155 252.65386963 131.35636902 C252.86688847 130.5826253 253.0799073 129.80888159 253.29938126 129.01169109 C254 127 254 127 256 124 C258.4375 123.5 258.4375 123.5 261 124 C263.43055133 127.43622643 264.80549061 130.94260291 266.10620117 134.92456055 C266.69008606 136.6971373 266.69008606 136.6971373 267.2857666 138.50552368 C267.7049847 139.79920654 268.12404743 141.09293976 268.54296875 142.38671875 C268.98701097 143.7431133 269.4315619 145.0993414 269.87658691 146.45541382 C271.07178158 150.10295782 272.25910939 153.75301833 273.44485092 157.40364456 C274.4438308 160.47578952 275.44754191 163.54638001 276.45124531 166.61698437 C282.57329752 185.34797428 288.61766678 204.10304543 294.58389282 222.88427734 C302.5689943 248.00462597 310.86656718 273.0233051 319.13848209 298.05031967 C320.30364625 301.57603694 321.46789061 305.10205765 322.63208961 308.62809372 C323.44205057 311.07955481 324.25365237 313.53046838 325.06535339 315.98135376 C325.55975537 317.47802352 326.0540881 318.97471616 326.54833984 320.47143555 C326.76852122 321.13459809 326.9887026 321.79776064 327.21555614 322.48101902 C328.58301059 326.62897158 329.82459521 330.7947942 331 335 C332.8239672 332.26404919 333.49749359 330.66223674 334.30810547 327.56958008 C334.55354095 326.65830856 334.79897644 325.74703705 335.05184937 324.80815125 C335.32091095 323.80540665 335.58997253 322.80266205 335.8671875 321.76953125 C344.28100436 291.74120254 355.32429565 264.38124349 369.5 236.625 C369.89486351 235.85128178 370.28972702 235.07756355 370.69655609 234.28039932 C376.0481843 223.80982463 381.49884847 213.39265303 387 203 C388.5172241 200.12975269 390.03428963 197.25942522 391.54980469 194.38827515 C392.34560317 192.88282705 393.14397007 191.37873098 393.94604492 189.87661743 C396.99144281 184.13998924 399.75142834 178.27998603 402.39697266 172.34896851 C405.39209911 165.76083334 405.39209911 165.76083334 408 164 C409.32 164 410.64 164 412 164 C412 164.66 412 165.32 412 166 C412.66 166 413.32 166 414 166 C414.18352366 173.80589529 413.61088205 181.44306005 412.84762573 189.20776367 C412.72370803 190.50782191 412.59979033 191.80788015 412.47211754 193.1473341 C412.1304035 196.7315473 411.78287628 200.31517607 411.43439221 203.89873648 C411.05872075 207.77302488 410.68861262 211.64784499 410.31793213 215.52261353 C409.67563621 222.22998635 409.03022451 228.93705329 408.38299179 235.64395142 C407.35984856 246.24917752 406.34662587 256.8553407 405.33499146 267.46166992 C404.98836416 271.09456317 404.64167537 274.72745055 404.29496956 278.3603363 C404.20834211 279.2680748 404.12171466 280.17581329 404.03246214 281.11105901 C403.04751302 291.43063969 402.06059397 301.75003162 401.07275391 312.06933594 C400.98251084 313.01207332 400.89226778 313.95481069 400.79929008 314.92611587 C399.33573709 330.21260994 397.86460809 345.49836798 396.39153217 360.78394687 C394.87794533 376.49273099 393.37557855 392.20256242 391.88281167 407.91333866 C390.9623772 417.59612951 390.03277307 427.27795179 389.09130384 436.95872045 C388.44696184 443.59225801 387.81327112 450.22675878 387.18790351 456.86211181 C386.82699388 460.68789224 386.46135798 464.51306376 386.08285141 468.33714676 C385.67217045 472.48744231 385.28426195 476.63955921 384.89840698 480.79223633 C384.77585285 481.99360827 384.65329872 483.19498022 384.52703083 484.43275738 C383.72948766 493.33066256 384.7955396 500.87023223 387.60400391 509.32617188 C387.90416412 510.23991577 388.20432434 511.15365967 388.51358032 512.09509277 C388.83136444 513.04339966 389.14914856 513.99170654 389.4765625 514.96875 C389.80667328 515.97087524 390.13678406 516.97300049 390.47689819 518.00549316 C391.520787 521.17217117 392.57233914 524.33622827 393.625 527.5 C394.68377515 530.69265864 395.7408578 533.88585208 396.79452515 537.0802002 C397.44790985 539.0600226 398.10441135 541.03881964 398.76431274 543.01647949 C399.05816864 543.9050061 399.35202454 544.79353271 399.65478516 545.70898438 C399.91522614 546.49156616 400.17566711 547.27414795 400.44400024 548.08044434 C401 550 401 550 401 552 C165.71 552 -69.58 552 -312 552 C-312 487.97935216 -312 487.97935216 -292.40185547 457.21020508 C-285.57515488 446.48986185 -278.77956713 435.75019714 -272 425 C-263.95734176 412.24694955 -255.88243635 399.51491715 -247.78222656 386.79833984 C-244.85345188 382.19976239 -241.92679652 377.59983662 -239 373 C-235.47763906 367.46415742 -231.95479621 361.92862463 -228.4296875 356.39453125 C-222.93840686 347.77225726 -217.45391721 339.14596669 -212 330.5 C-204.77132674 319.04055428 -197.4884348 307.61570545 -190.20898438 296.18847656 C-184.12395361 286.63531078 -178.04299925 277.0798246 -172 267.5 C-165.95418218 257.91570719 -159.87020066 248.35589393 -153.78222656 238.79833984 C-150.85345188 234.19976239 -147.92679652 229.59983662 -145 225 C-141.47763906 219.46415742 -137.95479621 213.92862463 -134.4296875 208.39453125 C-128.93840686 199.77225726 -123.45391721 191.14596669 -118 182.5 C-111.95418218 172.91570719 -105.87020066 163.35589393 -99.78222656 153.79833984 C-96.85345187 149.19976238 -93.92682309 144.59981973 -91 140 C-89.83334387 138.16665996 -88.6666772 136.33332663 -87.5 134.5 C-86.9225 133.5925 -86.345 132.685 -85.75 131.75 C-70 107 -54.25 82.25 -38.5 57.5 C-37.9222583 56.59209717 -37.3445166 55.68419434 -36.74926758 54.7487793 C-35.58512661 52.91946133 -34.42090164 51.09019682 -33.2565918 49.26098633 C-30.30058334 44.61665739 -27.34613891 39.97134596 -24.39453125 35.32421875 C-21.48679001 30.74662693 -18.57303928 26.1729051 -15.65625 21.60107422 C-14.02595115 19.04075525 -12.40336069 16.47566813 -10.78125 13.91015625 C-9.79199381 12.35656247 -8.80242801 10.80316579 -7.8125 9.25 C-7.36688721 8.54061279 -6.92127441 7.83122559 -6.4621582 7.1003418 C-4.49286384 4.02554587 -3.07816478 2.05210985 0 0 Z " fill="#234" transform="translate(312,98)"/>
<path d="M0 0 C2.375 0.0625 2.375 0.0625 5 1 C7.54010794 5.32578868 9.01453959 9.87282609 10.390625 14.66650391 C10.61164572 15.41899446 10.83266644 16.171485 11.06038475 16.9467783 C11.79567434 19.45515721 12.52280207 21.96582691 13.25 24.4765625 C13.7760696 26.27703035 14.30266371 28.07734501 14.82974243 29.8775177 C15.96314952 33.75250151 17.09298017 37.62850351 18.22003174 41.50534058 C20.02302636 47.70712204 21.83388925 53.90658877 23.64599609 60.10571289 C25.85657135 67.66979447 28.06534677 75.23439685 30.27174187 82.79969883 C34.14041062 96.06403673 38.02232382 109.32444466 41.9140625 122.58203125 C42.19260574 123.53091846 42.47114899 124.47980568 42.75813293 125.45744705 C44.15583415 130.21849418 45.55384016 134.97945173 46.95202637 139.74035645 C48.63569511 145.47351311 50.3184162 151.20694766 52.00097656 156.94042969 C67.93742825 211.2435385 83.90758726 265.53670806 99.92111206 319.81713867 C105.31551841 338.1024725 110.70512854 356.38919803 116.08203125 374.6796875 C116.33696728 375.54688667 116.59190331 376.41408585 116.85456467 377.30756378 C118.1516417 381.71983507 119.44863875 386.13212987 120.74560547 390.54443359 C121.2679024 392.32128943 121.79020058 394.0981449 122.3125 395.875 C122.57116852 396.75498657 122.82983704 397.63497314 123.09634399 398.54162598 C131.90857612 428.51973794 140.75200792 458.48853647 149.61227417 488.45248413 C155.77403267 509.29095468 161.92605989 530.13222732 168.0546875 550.98046875 C168.3434803 551.9628162 168.6322731 552.94516365 168.9298172 553.95727921 C171.72102867 563.45215433 174.51118217 572.94733906 177.29871941 582.44329357 C178.3125034 585.89633816 179.3269129 589.34919881 180.34143448 592.80202675 C180.80737392 594.38843 181.27301163 595.97492191 181.73830795 597.5615139 C182.37930369 599.7472065 183.02128144 601.93260817 183.66357422 604.11791992 C183.96090863 605.13221211 183.96090863 605.13221211 184.2642498 606.16699505 C185.86068634 611.58933599 187.55773415 616.97743778 189.29885864 622.35517883 C190 625 190 625 190 629 C82.42 629 -25.16 629 -136 629 C-134.87499843 618.87498589 -134.87499843 618.87498589 -133.98066711 614.69670105 C-133.7787142 613.74268748 -133.57676128 612.78867392 -133.36868858 611.80575085 C-133.03790526 610.27611438 -133.03790526 610.27611438 -132.70043945 608.71557617 C-132.46493189 607.60940854 -132.22942432 606.50324091 -131.98678017 605.36355305 C-131.19980646 601.67244902 -130.40654571 597.9827255 -129.61328125 594.29296875 C-129.04678658 591.64475684 -128.48162201 588.99626149 -127.91639709 586.34777832 C-126.53782012 579.8920716 -125.1545525 573.43737852 -123.76976901 566.98300064 C-122.12897134 559.33431231 -120.49319429 551.68455268 -118.85758972 544.03475249 C-115.76755523 529.5833037 -112.67269514 515.13289211 -109.57540703 500.68299639 C-107.13203853 489.28382559 -104.69020618 477.8843277 -102.25048828 466.484375 C-101.94643726 465.06367968 -101.64238618 463.64298438 -101.33833504 462.22228909 C-100.88559317 460.10681703 -100.43285229 457.99134475 -99.98011553 455.8758716 C-92.16855362 419.37586008 -84.34200562 382.87906621 -76.5113306 346.38315105 C-75.99453841 343.97454526 -75.4777621 341.56593605 -74.96099091 339.15732574 C-64.19912942 288.9976136 -53.42895649 238.83968988 -42.65100932 188.68343168 C-41.35832595 182.66772783 -40.06581433 176.65198708 -38.77337646 170.63623047 C-34.78878077 152.0898252 -30.80305886 133.54366297 -26.81420612 114.99817276 C-26.46963173 113.396121 -26.1250587 111.79406895 -25.78048706 110.1920166 C-25.61140616 109.40589265 -25.44232527 108.61976869 -25.26812071 107.8098228 C-24.10258443 102.39040437 -22.93783907 96.97081635 -21.77346802 91.55114746 C-20.36594748 84.99977003 -18.95727644 78.44864122 -17.54719156 71.89781523 C-16.83607459 68.59405158 -16.12558324 65.29015722 -15.41618919 61.98602295 C-12.55860821 48.67803843 -9.66785606 35.37735957 -6.69957018 22.09359598 C-6.39341824 20.72124308 -6.08862953 19.34858525 -5.78529692 17.97560644 C-5.36346215 16.06853181 -4.93554369 14.16280598 -4.50738525 12.25714111 C-4.26427738 11.16787952 -4.02116951 10.07861794 -3.77069473 8.95634842 C-1.94215437 1.94215437 -1.94215437 1.94215437 0 0 Z " fill="#234" transform="translate(906,21)"/>
</svg>
